<svg width="61" height="53" viewBox="0 0 61 53" fill="none" xmlns="http://www.w3.org/2000/svg">
<g opacity="0.8" filter="url(#filter0_i_1_163)">
<path fill-rule="evenodd" clip-rule="evenodd" d="M40.351 0.198536C39.7892 0.455631 39.4828 0.972714 39.3834 1.83211C39.2821 2.70855 39.0962 3.22687 38.6379 3.91108C37.7799 5.1917 36.351 6.02331 34.6982 6.20376C33.4145 6.34393 32.8209 6.58935 32.517 7.1055C32.0393 7.91687 32.3673 8.82698 33.262 9.17208C33.5383 9.27868 34.176 9.41068 34.6791 9.46543C35.9131 9.59971 36.9851 10.0453 37.8246 10.7729C38.6642 11.5004 39.1784 12.4294 39.3334 13.4988C39.4922 14.5947 39.7777 15.1101 40.3712 15.3724C40.9735 15.6387 41.4543 15.6387 42.0566 15.3724C42.65 15.1101 42.9355 14.5947 43.0944 13.4988C43.4088 11.33 45.246 9.73792 47.7487 9.46543C49.0133 9.32774 49.608 9.08035 49.9107 8.56606C50.3884 7.7547 50.0604 6.84459 49.1658 6.49949C48.8895 6.39289 48.2432 6.25985 47.7296 6.20376C46.0767 6.02331 44.6478 5.1917 43.7899 3.91108C43.3316 3.22687 43.1456 2.70855 43.0443 1.83211C42.9427 0.953502 42.6398 0.453669 42.0513 0.193475C41.4641 -0.0660994 40.9261 -0.06455 40.351 0.198536ZM18.891 3.40298C18.3243 3.66214 18.0342 4.19761 17.8785 5.27154C17.5641 7.44038 15.727 9.03243 13.2243 9.30491C11.9596 9.4426 11.365 9.68999 11.0622 10.2043C10.7549 10.7262 10.7549 11.1429 11.0622 11.6648C11.365 12.1791 11.9596 12.4265 13.2243 12.5642C15.727 12.8367 17.5641 14.4287 17.8785 16.5976C17.9417 17.0336 18.094 17.5862 18.217 17.8256C18.7904 18.9416 20.7277 18.9416 21.3011 17.8256C21.4241 17.5862 21.5764 17.0336 21.6396 16.5976C21.954 14.4287 23.7911 12.8367 26.2938 12.5642C27.5585 12.4265 28.1531 12.1791 28.4559 11.6648C28.7632 11.1429 28.7632 10.7262 28.4559 10.2043C28.1531 9.68999 27.5585 9.4426 26.2938 9.30491C23.7911 9.03243 21.954 7.44038 21.6396 5.27154C21.4807 4.17561 21.1952 3.66028 20.6017 3.39792C20.0079 3.13535 19.4726 3.137 18.891 3.40298ZM11.9459 21.9256C11.1729 22.2173 11.0584 22.4512 8.75498 28.4386L6.54788 34.1754H17.6232H28.6986V27.9778V21.7803L20.504 21.7843C13.9606 21.7875 12.2363 21.816 11.9459 21.9256ZM32.2744 27.9778V34.1754H43.3497H54.425L52.2179 28.4386C50.6182 24.2804 49.9255 22.6139 49.7003 22.382C49.0996 21.7632 49.3618 21.7803 40.4429 21.7803H32.2744V27.9778ZM5.33663 37.3112C5.33663 37.3317 4.15567 40.3646 2.71223 44.0511C1.26892 47.7376 0.0563625 50.9219 0.0177438 51.1273C-0.0908415 51.7055 0.310245 52.3923 0.911695 52.6583C1.39038 52.8699 1.48943 52.8713 15.0461 52.8713H28.6986V45.0728V37.2742H17.0176C10.5931 37.2742 5.33663 37.2909 5.33663 37.3112ZM32.2744 45.0728V52.8713H45.9268C59.2666 52.8713 59.5897 52.8667 60.0386 52.6682C60.5247 52.4533 61 51.7887 61 51.3241C61 51.1908 60.1094 48.8 59.0209 46.0114C57.9323 43.2227 56.7208 40.116 56.3287 39.1076L55.6157 37.2742H43.945H32.2744V45.0728Z" fill="#2C2C2C"/>
</g>
<defs>
<filter id="filter0_i_1_163" x="0" y="0" width="61" height="56.8713" filterUnits="userSpaceOnUse" color-interpolation-filters="sRGB">
<feFlood flood-opacity="0" result="BackgroundImageFix"/>
<feBlend mode="normal" in="SourceGraphic" in2="BackgroundImageFix" result="shape"/>
<feColorMatrix in="SourceAlpha" type="matrix" values="0 0 0 0 0 0 0 0 0 0 0 0 0 0 0 0 0 0 127 0" result="hardAlpha"/>
<feOffset dy="4"/>
<feGaussianBlur stdDeviation="2"/>
<feComposite in2="hardAlpha" operator="arithmetic" k2="-1" k3="1"/>
<feColorMatrix type="matrix" values="0 0 0 0 0 0 0 0 0 0 0 0 0 0 0 0 0 0 1 0"/>
<feBlend mode="normal" in2="shape" result="effect1_innerShadow_1_163"/>
</filter>
</defs>
</svg>
