<svg width="45" height="31" viewBox="0 0 45 31" fill="none" xmlns="http://www.w3.org/2000/svg">
<g opacity="0.8" filter="url(#filter0_i_1_89)">
<path fill-rule="evenodd" clip-rule="evenodd" d="M21.1242 0.0528004C18.5398 0.58428 16.5366 2.3838 15.7175 4.91001C15.5417 5.4523 15.5118 5.72038 15.514 6.73737C15.5169 8.14094 15.6361 8.65956 16.2191 9.80212C17.0987 11.526 18.713 12.8043 20.6979 13.3489C21.696 13.6227 23.304 13.6227 24.3021 13.3489C26.287 12.8043 27.9013 11.526 28.7809 9.80212C29.3639 8.65956 29.4831 8.14094 29.486 6.73737C29.4882 5.72038 29.4583 5.4523 29.2825 4.91001C28.5512 2.65469 26.945 1.02858 24.715 0.285977C24.0342 0.0592703 23.8156 0.0284525 22.7198 0.00461554C22.0429 -0.0101123 21.3249 0.0115965 21.1242 0.0528004ZM7.49202 8.00898C5.76704 8.41379 4.27484 9.86835 3.82195 11.5865C3.53652 12.669 3.70811 14.0116 4.26183 15.029C4.8697 16.1458 5.86866 16.9714 7.11877 17.3901C8.01691 17.6909 9.25717 17.7123 10.1492 17.4426C11.7899 16.9467 13.048 15.7286 13.5564 14.1439C13.8226 13.3139 13.8153 12.0685 13.5396 11.2919C12.9554 9.64607 11.6355 8.44001 9.96077 8.02159C9.32345 7.86239 8.14252 7.85634 7.49202 8.00898ZM34.9387 8.04585C33.2866 8.50641 32.0344 9.67493 31.4604 11.2919C31.1847 12.0685 31.1774 13.3139 31.4436 14.1439C31.952 15.7286 33.2101 16.9467 34.8508 17.4426C35.7428 17.7123 36.9831 17.6909 37.8812 17.3901C40.8132 16.4082 42.1353 13.2646 40.7681 10.5257C40.3676 9.72346 39.3633 8.77185 38.4989 8.37565C38.1362 8.20939 37.6299 8.03137 37.3737 7.98004C36.6982 7.84459 35.5491 7.87567 34.9387 8.04585ZM21.4891 16.9118C18.3792 17.1403 15.5293 18.448 13.2259 20.7035L12.259 21.6505L11.5599 21.404C8.94449 20.4821 5.84062 20.9441 3.54646 22.5967C1.75792 23.8851 0.632818 25.6174 0.176675 27.785C-0.18031 29.4814 -0.0129376 30.2383 0.831134 30.7446L1.25695 31H22.5H43.743L44.1689 30.7446C45.0129 30.2383 45.1803 29.4814 44.8233 27.785C44.3672 25.6174 43.2421 23.8851 41.4535 22.5967C39.1594 20.9441 36.0555 20.4821 33.4401 21.404L32.741 21.6505L31.7741 20.7035C29.7258 18.6978 27.4154 17.5193 24.6097 17.0492C23.6546 16.8891 22.4934 16.838 21.4891 16.9118Z" fill="#2C2C2C"/>
</g>
<defs>
<filter id="filter0_i_1_89" x="0" y="0" width="45" height="35" filterUnits="userSpaceOnUse" color-interpolation-filters="sRGB">
<feFlood flood-opacity="0" result="BackgroundImageFix"/>
<feBlend mode="normal" in="SourceGraphic" in2="BackgroundImageFix" result="shape"/>
<feColorMatrix in="SourceAlpha" type="matrix" values="0 0 0 0 0 0 0 0 0 0 0 0 0 0 0 0 0 0 127 0" result="hardAlpha"/>
<feOffset dy="4"/>
<feGaussianBlur stdDeviation="2"/>
<feComposite in2="hardAlpha" operator="arithmetic" k2="-1" k3="1"/>
<feColorMatrix type="matrix" values="0 0 0 0 0 0 0 0 0 0 0 0 0 0 0 0 0 0 1 0"/>
<feBlend mode="normal" in2="shape" result="effect1_innerShadow_1_89"/>
</filter>
</defs>
</svg>
