<svg width="45" height="44" viewBox="0 0 45 44" fill="none" xmlns="http://www.w3.org/2000/svg">
<g opacity="0.8" filter="url(#filter0_i_1_87)">
<path fill-rule="evenodd" clip-rule="evenodd" d="M19.726 0.0521094C19.2875 0.16082 18.7367 0.47292 18.3959 0.806022C17.8263 1.36291 17.6824 1.81299 17.4214 3.85421C17.2919 4.86806 17.1499 5.74394 17.106 5.80075C17.062 5.85747 16.8806 5.94845 16.7028 6.00276C16.5251 6.05716 15.9715 6.27708 15.4726 6.49157L14.5656 6.88139L14.2397 6.62929C12.7127 5.44742 11.5598 4.61242 11.228 4.44794C10.687 4.17982 9.83193 4.12585 9.15191 4.31685C8.6481 4.45835 8.55986 4.53212 6.58981 6.45766C4.61977 8.38319 4.5443 8.46944 4.39952 8.96186C4.20358 9.62815 4.25924 10.4629 4.53478 10.991C4.64592 11.2041 5.21331 11.9787 5.79575 12.7125C6.3782 13.4463 6.89205 14.0945 6.93766 14.153C6.99349 14.2248 6.89099 14.5474 6.6231 15.1428C6.40444 15.6287 6.18006 16.1685 6.1244 16.3422C6.06884 16.516 5.97575 16.6931 5.91772 16.736C5.8596 16.7788 4.96022 16.919 3.91887 17.0476C1.82483 17.3061 1.37351 17.4439 0.806918 17.9976C0.629472 18.1711 0.375323 18.515 0.242172 18.762L0 19.211V21.9653V24.7197L0.230724 25.2005C0.357622 25.465 0.611771 25.8283 0.79547 26.0079C1.37809 26.5773 1.82862 26.716 3.92618 26.9722C4.96347 27.0988 5.8596 27.2376 5.91772 27.2805C5.97575 27.3235 6.06884 27.5008 6.1244 27.6745C6.18006 27.8482 6.40444 28.388 6.6231 28.8739C6.89099 29.4693 6.99349 29.7919 6.93766 29.8637C6.89205 29.9223 6.3782 30.5705 5.79575 31.3042C5.21331 32.038 4.64592 32.8127 4.53478 33.0257C4.25836 33.5557 4.20341 34.3894 4.40102 35.0549C4.54606 35.5432 4.63333 35.6446 6.45922 37.4444C8.73387 39.6867 8.87803 39.7808 10.0391 39.781C10.7045 39.7811 10.8949 39.7483 11.2253 39.5768C11.5372 39.4148 12.7433 38.5373 14.4654 37.2193C14.543 37.16 14.7825 37.2261 15.258 37.4381C15.6327 37.6052 16.2085 37.8331 16.5373 37.9445C16.9688 38.0907 17.1454 38.195 17.1719 38.3192C17.1922 38.4139 17.3105 39.2839 17.4347 40.2526C17.6864 42.2132 17.8329 42.6604 18.408 43.2225C18.5918 43.4021 18.9635 43.6505 19.2341 43.7745L19.726 44H22.5H25.274L25.7659 43.7745C26.0365 43.6505 26.4082 43.4021 26.592 43.2225C27.175 42.6526 27.3166 42.213 27.5775 40.1625C27.7065 39.1487 27.8553 38.2758 27.908 38.2227C27.9608 38.1697 28.3011 38.0186 28.6644 37.8871C29.0276 37.7556 29.5607 37.5331 29.8488 37.3927C30.472 37.089 30.2643 36.9977 32.0548 38.363C32.7813 38.917 33.5541 39.459 33.772 39.5677C34.3142 39.8379 35.1672 39.8916 35.8481 39.6984C36.3478 39.5567 36.4514 39.4714 38.2929 37.6867C40.587 35.4635 40.6833 35.3226 40.6835 34.1877C40.6837 33.2134 40.618 33.0854 39.2042 31.3042C38.6218 30.5705 38.108 29.9223 38.0623 29.8637C38.0065 29.7919 38.109 29.4693 38.3769 28.8739C38.5956 28.388 38.8199 27.8482 38.8756 27.6745C38.9312 27.5008 39.0242 27.3235 39.0823 27.2805C39.1404 27.2376 40.0365 27.0988 41.0738 26.9722C43.1684 26.7165 43.5975 26.5838 44.1977 26.0071C44.386 25.826 44.6436 25.4623 44.7701 25.1988L45 24.7197V22.0084V19.2971L44.7693 18.8163C44.6424 18.5518 44.3882 18.1885 44.2045 18.0088C43.6219 17.4394 43.1714 17.3007 41.0738 17.0445C40.0365 16.9179 39.1404 16.7792 39.0823 16.7362C39.0242 16.6932 38.9312 16.516 38.8756 16.3422C38.8199 16.1685 38.5956 15.6287 38.3769 15.1428C38.109 14.5474 38.0065 14.2248 38.0623 14.153C38.108 14.0945 38.6218 13.4463 39.2042 12.7125C39.7867 11.9787 40.3541 11.2041 40.4652 10.991C40.7408 10.4629 40.7964 9.62815 40.6005 8.96186C40.4557 8.46944 40.3802 8.38319 38.4102 6.45766C36.4401 4.53212 36.3519 4.45835 35.8481 4.31685C35.1664 4.12534 34.3124 4.17974 33.772 4.44906C33.5541 4.55768 32.7813 5.09977 32.0548 5.65374C30.2643 7.01902 30.472 6.9277 29.8488 6.62404C29.5607 6.48365 29.0276 6.26115 28.6644 6.12963C28.3011 5.99811 27.9608 5.84706 27.908 5.79403C27.8553 5.74093 27.7065 4.86806 27.5775 3.85421C27.3166 1.80378 27.175 1.36412 26.592 0.79423C26.4082 0.614682 26.0365 0.366276 25.7659 0.242245L25.274 0.0167335L22.6321 0.0016707C21.1791 -0.00650623 19.8713 0.016131 19.726 0.0521094ZM23.472 12.8842C24.5595 13.006 25.4868 13.2599 26.4168 13.6905C28.5131 14.661 30.0174 16.128 30.9983 18.158C32.6908 21.6605 31.9 25.857 29.0373 28.5643C26.2017 31.2459 22.0763 31.9376 18.5704 30.3192C17.5055 29.8277 16.7881 29.3448 15.9627 28.5643C13.1 25.857 12.3092 21.6605 14.0017 18.158C15.5483 14.9572 18.7357 12.9199 22.3679 12.8106C22.5616 12.8048 23.0585 12.8379 23.472 12.8842Z" fill="#2C2C2C"/>
</g>
<defs>
<filter id="filter0_i_1_87" x="0" y="0" width="45" height="48" filterUnits="userSpaceOnUse" color-interpolation-filters="sRGB">
<feFlood flood-opacity="0" result="BackgroundImageFix"/>
<feBlend mode="normal" in="SourceGraphic" in2="BackgroundImageFix" result="shape"/>
<feColorMatrix in="SourceAlpha" type="matrix" values="0 0 0 0 0 0 0 0 0 0 0 0 0 0 0 0 0 0 127 0" result="hardAlpha"/>
<feOffset dy="4"/>
<feGaussianBlur stdDeviation="2"/>
<feComposite in2="hardAlpha" operator="arithmetic" k2="-1" k3="1"/>
<feColorMatrix type="matrix" values="0 0 0 0 0 0 0 0 0 0 0 0 0 0 0 0 0 0 1 0"/>
<feBlend mode="normal" in2="shape" result="effect1_innerShadow_1_87"/>
</filter>
</defs>
</svg>
