<svg width="46" height="54" viewBox="0 0 46 54" fill="none" xmlns="http://www.w3.org/2000/svg">
<g opacity="0.8" filter="url(#filter0_i_1_151)">
<path fill-rule="evenodd" clip-rule="evenodd" d="M34.7506 0.738467C34.9946 0.755217 35.3574 0.803532 35.5567 0.845638C35.9995 0.939416 39.9841 2.91861 41.2085 3.65295C42.2542 4.28018 43.3765 5.3516 44.0531 6.36879C47.5479 11.6224 46.031 20.8163 39.9437 31.2746C38.9028 33.0632 35.5257 37.8058 34.096 39.4872C26.4476 48.4815 18.2693 53.5206 11.4002 53.4714C10.9264 53.468 9.96972 53.3571 9.27416 53.2249C7.78109 52.9411 7.11458 52.6523 3.94235 50.9149C1.36513 49.5033 1.07847 49.2538 0.765203 48.149C0.417002 46.9214 0.36057 47.0282 4.38957 41.2849C7.71737 36.541 7.96885 36.2106 8.45461 35.9442C9.2145 35.5275 10.1693 35.3594 10.998 35.4962C11.5211 35.5827 12.0954 35.83 13.7093 36.6639C16.3545 38.0307 17.1637 38.2145 18.9047 37.8437C19.9553 37.62 20.6136 37.2806 21.6928 36.4067C25.2869 33.4958 28.1325 29.949 30.0504 25.9891C31.0195 23.9885 31.8044 21.7181 31.8476 20.7911C31.9025 19.6135 31.2927 18.2676 30.335 17.4528C30.1316 17.2799 29.0815 16.6682 28.0013 16.0936C26.4518 15.2694 25.9478 14.9511 25.614 14.5862C25.0865 14.0094 24.8159 13.2005 24.8901 12.4217C24.9374 11.9252 25.1587 11.579 28.4672 6.82498C32.3643 1.22524 32.3724 1.21588 33.6274 0.886392C34.0208 0.7831 34.4937 0.720873 34.7506 0.738467Z" fill="#2C2C2C"/>
</g>
<defs>
<filter id="filter0_i_1_151" x="0.617188" y="0.735474" width="45.2827" height="56.7363" filterUnits="userSpaceOnUse" color-interpolation-filters="sRGB">
<feFlood flood-opacity="0" result="BackgroundImageFix"/>
<feBlend mode="normal" in="SourceGraphic" in2="BackgroundImageFix" result="shape"/>
<feColorMatrix in="SourceAlpha" type="matrix" values="0 0 0 0 0 0 0 0 0 0 0 0 0 0 0 0 0 0 127 0" result="hardAlpha"/>
<feOffset dy="4"/>
<feGaussianBlur stdDeviation="2"/>
<feComposite in2="hardAlpha" operator="arithmetic" k2="-1" k3="1"/>
<feColorMatrix type="matrix" values="0 0 0 0 0 0 0 0 0 0 0 0 0 0 0 0 0 0 1 0"/>
<feBlend mode="normal" in2="shape" result="effect1_innerShadow_1_151"/>
</filter>
</defs>
</svg>
