<svg width="49" height="50" viewBox="0 0 49 50" fill="none" xmlns="http://www.w3.org/2000/svg">
<g opacity="0.8" filter="url(#filter0_i_1_154)">
<path fill-rule="evenodd" clip-rule="evenodd" d="M8.3209 0.0693132C5.05949 0.373258 2.14638 2.07872 0.810593 4.46599C-0.0506668 6.00503 0.000579586 4.72727 0.000579586 24.7093C0.000579586 44.6913 -0.0506668 43.4135 0.810593 44.9526C1.93512 46.9622 4.1554 48.4798 6.96778 49.161L7.97261 49.4044H24.4894H41.0062L42.011 49.161C45.5234 48.3103 48.1391 46.095 48.7962 43.4144C49.0679 42.3065 49.0679 7.11205 48.7962 6.00417C48.1388 3.32272 45.5137 1.10023 42.011 0.259822L41.0062 0.0187281L25.1174 0.00168553C16.3786 -0.00764992 8.82018 0.0227445 8.3209 0.0693132ZM30.4868 9.3785C31.1651 9.69167 31.6356 10.3022 31.7268 10.9875C31.8276 11.7463 31.3083 12.5941 30.5224 12.9533L29.9646 13.2082L23.2292 13.1784L16.4939 13.1485L16.0316 12.8437C15.166 12.273 14.8259 11.2023 15.2389 10.3481C15.4368 9.93884 16.2059 9.32086 16.6101 9.24639C16.7643 9.21806 17.0035 9.17312 17.1416 9.14653C17.2798 9.12004 20.2189 9.10593 23.673 9.11515C29.9435 9.13209 29.954 9.13252 30.4868 9.3785ZM35.4157 18.6146C36.7361 19.2266 37.1022 20.7903 36.1456 21.7319C35.3231 22.5416 36.2989 22.484 23.4218 22.484H11.8663L11.3326 22.2375C10.5289 21.8665 10.1077 21.2443 10.1086 20.4294C10.1095 19.6197 10.4501 19.0839 11.2162 18.687L11.7407 18.4153L23.361 18.4142C34.4404 18.4133 35.0014 18.4226 35.4157 18.6146ZM33.3177 28.2343C34.6718 28.4822 35.726 28.9918 36.8035 29.919C37.9023 30.8644 38.4576 31.7279 38.759 32.9592C39.5946 36.3726 36.777 39.7981 32.7959 40.2091C28.5027 40.6522 24.8156 37.8794 24.8156 34.2076C24.8156 31.8194 26.3064 29.7696 28.7982 28.7316C30.3592 28.0812 31.6852 27.9353 33.3177 28.2343Z" fill="#2C2C2C"/>
</g>
<defs>
<filter id="filter0_i_1_154" x="0" y="0" width="49" height="53.4044" filterUnits="userSpaceOnUse" color-interpolation-filters="sRGB">
<feFlood flood-opacity="0" result="BackgroundImageFix"/>
<feBlend mode="normal" in="SourceGraphic" in2="BackgroundImageFix" result="shape"/>
<feColorMatrix in="SourceAlpha" type="matrix" values="0 0 0 0 0 0 0 0 0 0 0 0 0 0 0 0 0 0 127 0" result="hardAlpha"/>
<feOffset dy="4"/>
<feGaussianBlur stdDeviation="2"/>
<feComposite in2="hardAlpha" operator="arithmetic" k2="-1" k3="1"/>
<feColorMatrix type="matrix" values="0 0 0 0 0 0 0 0 0 0 0 0 0 0 0 0 0 0 1 0"/>
<feBlend mode="normal" in2="shape" result="effect1_innerShadow_1_154"/>
</filter>
</defs>
</svg>
