<svg width="45" height="43" viewBox="0 0 45 43" fill="none" xmlns="http://www.w3.org/2000/svg">
<g opacity="0.8" filter="url(#filter0_i_1_88)">
<path fill-rule="evenodd" clip-rule="evenodd" d="M21.0028 1.76781L19.6456 3.53561L17.4924 4.22445C16.3081 4.60328 15.3256 4.92426 15.309 4.93766C15.2925 4.95107 15.866 5.75214 16.5834 6.71778L17.8879 8.47353L17.9318 10.6377C17.956 11.828 18.0041 12.829 18.0387 12.8621C18.0734 12.8954 19.0635 12.6342 20.2391 12.2818L22.3765 11.6412L24.5101 12.2793C25.6836 12.6302 26.6708 12.8914 26.7041 12.8596C26.7372 12.8278 26.7841 11.828 26.8083 10.6377L26.8522 8.47353L28.1567 6.71778C28.8742 5.75214 29.4476 4.95107 29.4311 4.93766C29.4145 4.92426 28.432 4.60328 27.2477 4.22445L25.0945 3.53561L23.7373 1.76781C22.9908 0.7955 22.3755 0 22.3701 0C22.3646 0 21.7493 0.7955 21.0028 1.76781ZM5.71892 6.83042L4.35994 8.59789L2.18001 9.295L0 9.99219L1.31724 11.7705L2.63447 13.549L2.69494 15.7539C2.72816 16.9666 2.78537 17.9588 2.82211 17.9588C2.85876 17.9588 3.84079 17.673 5.0044 17.3238L7.12 16.6886L9.22205 17.3238C10.3782 17.673 11.3673 17.9588 11.4201 17.9588C11.4871 17.9588 11.5168 17.3002 11.5186 15.7877L11.5211 13.6167L12.8361 11.8461C13.5594 10.8723 14.1515 10.0502 14.1519 10.0193C14.1524 9.98831 13.185 9.65358 12.0023 9.27544L9.85193 8.58778L8.48346 6.82334C7.7308 5.85281 7.10664 5.05975 7.09644 5.06085C7.08625 5.06194 6.46639 5.8582 5.71892 6.83042ZM36.5274 6.81415L35.1547 8.58406L33.0029 9.27662C31.8194 9.65763 30.8514 9.9932 30.8519 10.0224C30.8523 10.0516 31.4444 10.8723 32.1677 11.8461L33.4827 13.6167L33.4852 15.7877C33.4869 17.3257 33.5162 17.9588 33.5855 17.9588C33.6394 17.9588 34.633 17.6738 35.7935 17.3254L37.9036 16.692L40.024 17.3255C41.1902 17.674 42.1677 17.9591 42.1963 17.959C42.2247 17.9589 42.2747 16.9675 42.3071 15.756L42.3661 13.5533L43.683 11.7753L45 9.99725L42.8045 9.27755L40.609 8.55784L39.2545 6.80108L37.9 5.04432L36.5274 6.81415ZM20.79 15.3491C19.4512 15.5506 17.7274 16.0793 16.4616 16.6768L15.8262 16.9767L15.8024 18.627L15.7786 20.2775L11.1866 20.2993L6.59453 20.3211L6.59479 23.9669L6.59505 27.6127L14.4931 28.9884L22.3912 30.364L30.2684 28.9909L38.1456 27.6177V23.9694V20.3211L33.5536 20.2993L28.9615 20.2775L28.9377 18.6075L28.9138 16.9377L28.1587 16.6046C27.1991 16.1813 25.8155 15.727 24.8173 15.5077C23.9206 15.3105 21.6422 15.2208 20.79 15.3491ZM23.9204 17.9238C24.3245 17.9974 25.021 18.1699 25.468 18.3072L26.281 18.5569V19.4383V20.3196H22.3701H18.4591V19.4412V18.5628L19.1641 18.3376C20.8395 17.8023 22.4716 17.6604 23.9204 17.9238ZM6.59453 36.5922V43H22.3701H38.1456V36.5855V30.1709L37.9039 30.2186C37.771 30.2449 34.5972 30.7981 30.8511 31.4482C27.1049 32.0982 23.951 32.6496 23.8422 32.6735C23.6472 32.7163 23.6444 32.7362 23.6444 34.0644V35.4118H22.3701H21.0957V34.0684C21.0957 32.8618 21.0801 32.7207 20.9419 32.6818C20.7925 32.6397 6.73189 30.1843 6.64031 30.1843C6.61509 30.1843 6.59453 33.0678 6.59453 36.5922Z" fill="#2C2C2C"/>
</g>
<defs>
<filter id="filter0_i_1_88" x="0" y="0" width="45" height="47" filterUnits="userSpaceOnUse" color-interpolation-filters="sRGB">
<feFlood flood-opacity="0" result="BackgroundImageFix"/>
<feBlend mode="normal" in="SourceGraphic" in2="BackgroundImageFix" result="shape"/>
<feColorMatrix in="SourceAlpha" type="matrix" values="0 0 0 0 0 0 0 0 0 0 0 0 0 0 0 0 0 0 127 0" result="hardAlpha"/>
<feOffset dy="4"/>
<feGaussianBlur stdDeviation="2"/>
<feComposite in2="hardAlpha" operator="arithmetic" k2="-1" k3="1"/>
<feColorMatrix type="matrix" values="0 0 0 0 0 0 0 0 0 0 0 0 0 0 0 0 0 0 1 0"/>
<feBlend mode="normal" in2="shape" result="effect1_innerShadow_1_88"/>
</filter>
</defs>
</svg>
