<svg width="57" height="50" viewBox="0 0 57 50" fill="none" xmlns="http://www.w3.org/2000/svg">
<g opacity="0.8" filter="url(#filter0_i_1_158)">
<path fill-rule="evenodd" clip-rule="evenodd" d="M27.6941 0.195627C27.4397 0.312102 27.1908 0.534051 27.054 0.766518C26.8378 1.13389 26.8301 1.32776 26.8301 6.41V11.6731H41.915H57V6.41C57 1.32564 56.9924 1.13399 56.7759 0.766132C56.6316 0.520927 56.3952 0.315962 56.1123 0.190898C55.6788 -0.000749496 55.4889 -0.00325848 41.8917 0.000890993C28.3906 0.00504047 28.1019 0.00909345 27.6941 0.195627ZM14.3347 14.767C14.0803 14.8835 13.8314 15.1055 13.6946 15.3379C13.4785 15.7052 13.4707 15.8993 13.4707 20.9332V26.148H26.8301H40.1895V20.358V14.5681L27.4702 14.5723C15.0265 14.5765 14.742 14.5807 14.3347 14.767ZM43.5293 27.5955V40.6229H49.6011C55.4668 40.6229 55.6879 40.6164 56.1123 40.4287C56.3952 40.3036 56.6316 40.0986 56.7759 39.8534C56.9971 39.4776 57 39.3099 57 27.0204V14.5681H50.2646H43.5293V27.5955ZM0.864018 29.242C0.609633 29.3584 0.360703 29.5804 0.223881 29.8129C0.00879491 30.1784 0 30.3753 0 34.833C0 39.2925 0.0086836 39.4874 0.224104 39.8534C0.368385 40.0986 0.604846 40.3036 0.88773 40.4287C1.31935 40.6195 1.52208 40.6229 12.4086 40.6229H23.4902V34.833V29.043L12.3853 29.0472C1.5488 29.0514 1.27025 29.0561 0.864018 29.242ZM26.8301 38.6485C26.8301 48.085 26.834 48.2608 27.0542 48.6349C27.1985 48.8801 27.4349 49.0851 27.7178 49.2101C28.1401 49.3968 28.365 49.4044 33.5098 49.4044C38.6546 49.4044 38.8795 49.3968 39.3017 49.2101C39.5846 49.0851 39.8211 48.8801 39.9654 48.6349C40.1856 48.2608 40.1895 48.085 40.1895 38.6485V29.043H33.5098H26.8301V38.6485Z" fill="#2C2C2C"/>
</g>
<defs>
<filter id="filter0_i_1_158" x="0" y="0" width="57" height="53.4044" filterUnits="userSpaceOnUse" color-interpolation-filters="sRGB">
<feFlood flood-opacity="0" result="BackgroundImageFix"/>
<feBlend mode="normal" in="SourceGraphic" in2="BackgroundImageFix" result="shape"/>
<feColorMatrix in="SourceAlpha" type="matrix" values="0 0 0 0 0 0 0 0 0 0 0 0 0 0 0 0 0 0 127 0" result="hardAlpha"/>
<feOffset dy="4"/>
<feGaussianBlur stdDeviation="2"/>
<feComposite in2="hardAlpha" operator="arithmetic" k2="-1" k3="1"/>
<feColorMatrix type="matrix" values="0 0 0 0 0 0 0 0 0 0 0 0 0 0 0 0 0 0 1 0"/>
<feBlend mode="normal" in2="shape" result="effect1_innerShadow_1_158"/>
</filter>
</defs>
</svg>
