<svg width="256" height="27" viewBox="0 0 256 27" fill="none" xmlns="http://www.w3.org/2000/svg">
<rect opacity="0.7" x="0.436035" width="2.01064" height="26.8085" fill="#2C2C2C"/>
<rect opacity="0.7" x="42.6597" width="2.01064" height="26.8085" fill="#2C2C2C"/>
<rect opacity="0.7" x="84.8828" width="2.01064" height="26.8085" fill="#2C2C2C"/>
<rect opacity="0.7" x="127.106" width="2.01064" height="26.8085" fill="#2C2C2C"/>
<rect opacity="0.7" x="169.33" width="2.01064" height="26.8085" fill="#2C2C2C"/>
<rect opacity="0.7" x="211.553" width="2.01064" height="26.8085" fill="#2C2C2C"/>
<rect opacity="0.7" x="253.776" width="2.01064" height="26.8085" fill="#2C2C2C"/>
<rect opacity="0.7" x="13.8403" width="1.34043" height="13.4043" fill="#2C2C2C"/>
<rect opacity="0.7" x="21.8828" width="1.34043" height="13.4043" fill="#2C2C2C"/>
<rect opacity="0.7" x="29.9253" width="1.34043" height="13.4043" fill="#2C2C2C"/>
<rect opacity="0.7" x="56.064" width="1.34043" height="13.4043" fill="#2C2C2C"/>
<rect opacity="0.7" x="64.1064" width="1.34043" height="13.4043" fill="#2C2C2C"/>
<rect opacity="0.7" x="72.1494" width="1.34043" height="13.4043" fill="#2C2C2C"/>
<rect opacity="0.7" x="98.2871" width="1.34043" height="13.4043" fill="#2C2C2C"/>
<rect opacity="0.7" x="106.33" width="1.34043" height="13.4043" fill="#2C2C2C"/>
<rect opacity="0.7" x="114.373" width="1.34043" height="13.4043" fill="#2C2C2C"/>
<rect opacity="0.7" x="140.511" width="1.34043" height="13.4043" fill="#2C2C2C"/>
<rect opacity="0.7" x="148.553" width="1.34043" height="13.4043" fill="#2C2C2C"/>
<rect opacity="0.7" x="156.596" width="1.34043" height="13.4043" fill="#2C2C2C"/>
<rect opacity="0.7" x="182.734" width="1.34043" height="13.4043" fill="#2C2C2C"/>
<rect opacity="0.7" x="190.776" width="1.34043" height="13.4043" fill="#2C2C2C"/>
<rect opacity="0.7" x="198.819" width="1.34043" height="13.4043" fill="#2C2C2C"/>
<rect opacity="0.7" x="224.958" width="1.34043" height="13.4043" fill="#2C2C2C"/>
<rect opacity="0.7" x="233" width="1.34043" height="13.4043" fill="#2C2C2C"/>
<rect opacity="0.7" x="241.042" width="1.34043" height="13.4043" fill="#2C2C2C"/>
</svg>
